<svg width="316.7378883074097" height="245.51250000000002" viewBox="0 -60 334 258.8928512411304" class="looka-1j8o68f"><defs id="SvgjsDefs4794"></defs><g id="SvgjsG4795" featurekey="phAakL-0" transform="matrix(1.9889285124113043,0,0,1.9889285124113043,184.27545184952962,-60)" fill="#0c5ea6"><g xmlns="http://www.w3.org/2000/svg"><g><path d="M37,50c-1.048,7.799,3.27,10.057,3.27,19.602c0,25.398-40.086,30.333,9.642,30.396V100c0.083,0,0.161-0.001,0.245-0.001    S50.317,100,50.402,100v-0.002c18.305-0.023,24.432-1.323,24.877-3.995C51,81,45,67.179,37,50z"></path></g><path d="M38.275,41.361C34,51,57,86,75,94c-4.397-4.956-14.957-15.013-14.957-24.398c0-12.317,10.133-12.792,1.993-28.24   c-8.139-15.448-1.162-19.435,1.993-22.757C67.187,15.282,62.701,9.801,60.376,0l-2.295,2.987c0.592,3.58-0.948,7.395-2.531,7.395   c-4.484,0-5.481,3.571-5.481,3.571s-1.495-3.571-5.316-3.571c-1.618,0-3.335-3.991-2.709-7.642L39.938,0   c-2.325,9.801-6.811,15.282-3.655,18.604C39.438,21.927,45.355,25.398,38.275,41.361z"></path></g></g><g id="SvgjsG4796" featurekey="fNbRbf-0" transform="matrix(4.787437651397164,0,0,4.787437651397164,-7.181154764974623,15.72232819617858)" fill="#0c5ea6"><path d="M4.66 15.96 l-0.02 1.44 l0 0.02 q0.92 -0.04 1.48 -0.04 l4.64 0 q0 0.74 -0.06 1.14 q-0.24 1.54 -2.04 1.54 l-5.32 0 q-0.86 0 -1.35 -0.5 t-0.49 -1.36 l0 -11.72 l0.14 -0.14 l8.62 0 q0.12 0.58 0.12 1.26 t-0.28 1.42 l-5.46 0 l0.02 1.44 l0 1.4 q0.52 -0.02 1.36 -0.02 l3.06 0 q0.18 0.56 0.18 1.28 t-0.18 1.32 l-4.42 0 l0 1.52 z M12.340000000000002 16.62 l0 -4.1 q0 -1.3 -0.48 -2 q0.74 -0.66 1.8 -0.66 t1.44 0.48 t0.38 1.46 l0 4.24 q0 0.7 0.16 1.02 t0.84 0.32 q0.66 0 1.34 -0.68 l0 -6.68 q0.66 -0.12 1.54 -0.12 t1.58 0.12 l0 7.12 q0 1.08 0.56 1.46 q-0.1 0.4 -0.38 0.87 t-0.58 0.69 q-1.64 -0.06 -2.36 -1.4 q-1.58 1.42 -2.98 1.42 t-2.13 -0.97 t-0.73 -2.59 z M27.28 17.72 l0.54 0 q0.24 0.66 0.24 1.32 t-0.06 0.86 q-1.2 0.2 -2.14 0.2 q-1.36 0 -1.93 -0.67 t-0.57 -2.11 l0 -11.9 l0.12 -0.14 l1.22 0 q0.94 0 1.32 0.42 t0.38 1.46 l0 9.62 q0 0.94 0.88 0.94 z M33.239999999999995 12.32 l0 7.68 q-0.34 0.06 -0.74 0.09 t-0.82 0.03 t-0.83 -0.03 t-0.75 -0.09 l0 -6.62 q0 -1.16 -0.94 -1.16 l-0.3 0 q-0.12 -0.38 -0.12 -1.06 q0 -0.66 0.12 -1.12 q0.52 -0.04 0.96 -0.07 t0.8 -0.03 l0.44 0 q1.02 0 1.6 0.64 t0.58 1.74 z M29.74 6 q0.58 -0.32 1.5 -0.32 q0.94 0 1.46 0.32 q0.24 0.54 0.24 1.16 t-0.24 1.16 q-0.58 0.3 -1.52 0.3 t-1.44 -0.3 q-0.24 -0.54 -0.24 -1.16 t0.24 -1.16 z M39.260000000000005 17.62 l1.74 -7.58 q0.56 -0.12 1.26 -0.12 q0.86 0 1.5 0.24 l0.1 0.14 q-2.04 7.44 -2.78 9.7 q-1.02 0.12 -2.15 0.12 t-1.61 -0.31 t-0.74 -1.19 l-2.4 -8.36 q0.98 -0.42 1.74 -0.42 t1.18 0.33 t0.62 1.13 l0.9 3.74 q0.1 0.38 0.44 2.42 q0.02 0.16 0.2 0.16 z M53.72 10.34 l-2.46 9.4 q-0.58 2.16 -1.54 3.32 q-1.1 1.32 -3.38 1.32 q-1.22 0 -2.42 -0.4 q-0.06 -0.54 0.12 -1.21 t0.5 -1.03 q0.9 0.3 1.8 0.3 q1.48 0 1.96 -1.62 l0.08 -0.28 q-1.74 0 -2.08 -1.26 l-2.32 -8.62 q0.92 -0.42 1.72 -0.42 t1.17 0.3 t0.55 1.04 l0.92 3.84 q0.14 0.54 0.46 2.64 q0.02 0.14 0.16 0.14 l1.74 -7.76 q0.48 -0.14 1.3 -0.14 q0.92 0 1.6 0.22 z"></path></g><g id="SvgjsG4797" featurekey="gqtJpI-0" transform="matrix(1.1792404662872558,0,0,1.1792404662872558,0.5009850133392391,107.40534663625596)" fill="#01060f"><path d="M2.3388 6.441000000000001 l-0.84729 0 c-0.15254 0 -0.22034 0.067797 -0.22034 0.22034 l0 12.864 c0 0.28797 0.15254 0.47441 0.45763 0.47441 l0.61 0 c0.13559 0 0.22034 -0.08458 0.22034 -0.23712 l0 -13.102 c0 -0.15254 -0.084746 -0.22034 -0.22034 -0.22034 z M22.752347457627117 16.3731 c0.47458 0 0.81356 -0.18661 0.81356 -0.79678 c0 -2.1695 -1.678 -4.0847 -4.1017 -4.0847 c-2.3559 0 -4.1695 1.8814 -4.1695 4.3051 c0 2.5085 1.9153 4.3047 4.2881 4.3047 c1.4915 0 2.661 -0.71153 3.4237 -1.6946 c0.084746 -0.11864 0.067797 -0.20339 -0.033898 -0.30508 l-0.22034 -0.28814 c-0.10153 -0.13559 -0.22034 -0.11864 -0.33898 -0.016784 c-0.64407 0.64407 -1.5763 1.1525 -2.7119 1.1525 c-1.8136 0 -2.8983 -1.2712 -3.0507 -2.5763 l6.1015 0 z M16.633747457627116 15.339 c0.033898 -1.1356 0.9322 -2.661 2.8136 -2.661 s2.7458 1.5763 2.7966 2.661 l-5.6102 0 z M40.91165593220339 19.50864 c0.050847 0.10169 -0.050681 0.18678 -0.16933 0.25458 c-0.3222 0.16949 -0.89847 0.32169 -1.5425 0.32169 c-1.7627 0 -2.1864 -1.0169 -2.1864 -3.1186 l0 -4.1186 l-1.0508 0 c-0.11864 0 -0.20339 -0.067797 -0.20339 -0.20339 l0 -0.25424 c0 -0.10169 0.016949 -0.16949 0.11864 -0.23729 c1.0339 -0.49136 1.5085 -1 1.9322 -3.0169 c0.033898 -0.10169 0.067797 -0.16949 0.15254 -0.16949 l0.20339 0 c0.11864 0 0.13559 0.067797 0.13559 0.18644 l0 2.4576 l2.1017 0 c0.11864 0 0.22017 0.084746 0.22017 0.22034 l0 0.81356 c0 0.11864 -0.10153 0.20339 -0.22017 0.20339 l-1.7798 0 c-0.13559 0 -0.25424 -0.016949 -0.33898 -0.050847 l0 4 c0 1.322 0.084746 2.0847 1.1017 2.0847 c0.50847 0 0.76271 -0.08458 1.0339 -0.16933 c0.16966 -0.050847 0.30525 -0.017115 0.33915 0.11848 z M53.18982610169491 11.3559 c-0.11864 0 -0.20356 -0.084746 -0.20356 -0.20339 l0 -4.1695 c0 -0.11864 0.067797 -0.20339 0.20339 -0.20339 l0.79661 0 c0.11864 0 0.20339 0.067797 0.18644 0.20339 l-0.22034 4.1695 c-0.016784 0.13559 -0.08458 0.20339 -0.20339 0.20339 l-0.55916 0 z M66.34915237288135 18.8476 l0.42356 -0.61034 c0.084746 -0.13559 0.15254 -0.16949 0.28814 -0.10169 c0.050847 0.050847 1.1017 0.76271 2.3898 0.76271 c1.4237 0 1.8644 -0.61017 1.8644 -1.1693 c0 -0.81356 -0.94915 -1.1186 -2.1017 -1.4237 c-1.6949 -0.44068 -2.8136 -1.1695 -2.8136 -2.4576 c0 -1.2373 1.0678 -2.3559 3.0339 -2.3559 c1.2203 0 2.1864 0.52542 2.7627 0.86441 c0.13559 0.067797 0.18644 0.18644 0.11864 0.28814 l-0.44068 0.64407 c-0.067797 0.11864 -0.16949 0.15254 -0.28814 0.084746 c-0.66102 -0.33898 -1.322 -0.64407 -2.1525 -0.64407 c-1.4407 0 -1.6949 0.77966 -1.6949 1.1695 c0 0.76271 0.98305 1.0678 1.9492 1.339 c1.5086 0.40678 3.051 1.0508 3.051 2.4917 c0 1.4236 -1.2881 2.3895 -3.2881 2.3895 c-1.3729 0 -2.6102 -0.6778 -3.0339 -1.0168 c-0.084746 -0.067797 -0.11864 -0.18644 -0.067797 -0.25424 z M112.68459322033897 11.6102 c0.11864 0 0.16949 0.067797 0.11864 0.20339 l-3.0508 8.0339 c-0.033898 0.10169 -0.11864 0.15254 -0.22034 0.15254 l-0.16949 0 c-0.11864 0 -0.18644 -0.050847 -0.23729 -0.15254 l-2.6271 -6.0339 l-2.6271 6.0339 c-0.050847 0.10169 -0.11864 0.15254 -0.22034 0.15254 l-0.18644 0 c-0.10169 0 -0.16949 -0.050847 -0.22034 -0.15254 l-3.0508 -8.0339 c-0.050847 -0.13559 0 -0.20339 0.11864 -0.20339 l1.0169 0 c0.10169 0 0.16949 0.050847 0.20339 0.13543 l2.1864 6.1866 l2.3898 -6.1017 c0.050847 -0.084746 0.11864 -0.15254 0.23729 -0.15254 l0.30508 0 c0.13559 0 0.18644 0.067797 0.23729 0.15254 l2.4068 6.1017 l2.1695 -6.1866 c0.033898 -0.08458 0.084746 -0.13543 0.20339 -0.13543 l1.0169 0 z M128.74217457627117 20.10153 c2.3559 0 4.322 -1.8812 4.322 -4.288 c0 -2.4576 -1.9661 -4.339 -4.322 -4.339 c-2.3898 0 -4.3559 1.8814 -4.3559 4.339 c0 2.4068 1.9661 4.288 4.3559 4.288 z M128.74217457627117 18.8985 c-1.7797 0 -3.1017 -1.4576 -3.1017 -3.0847 c0 -1.661 1.322 -3.1186 3.1017 -3.1186 c1.7458 0 3.0678 1.4576 3.0678 3.1186 c0 1.6271 -1.322 3.0847 -3.0678 3.0847 z M151.18966101694917 12.1019 c0.15254 0.10169 0.18661 0.16933 0.10186 0.28797 l-0.49153 0.71186 c-0.050847 0.10169 -0.13559 0.11864 -0.25424 0.067797 c-0.47458 -0.25424 -0.84746 -0.42373 -1.4746 -0.42373 c-0.61017 0 -1.4914 0.25424 -2.1527 1.3051 l0 5.7288 c0 0.11864 -0.067797 0.22017 -0.18644 0.22017 l-0.89831 0 c-0.11881 0 -0.18661 -0.10153 -0.18661 -0.22017 l0 -7.9661 c0 -0.10169 0.067797 -0.20339 0.18661 -0.20339 l0.64407 0 c0.27119 0 0.44068 0.27119 0.44068 0.49153 l0 0.47458 c0.71186 -0.67797 1.5085 -1.0339 2.3898 -1.0339 c0.84746 0 1.5254 0.3222 1.8814 0.55949 z M170.78964237288136 19.62712 c0.15254 0.16966 0.08458 0.37271 -0.13576 0.37271 l-0.98305 0 c-0.11864 0 -0.20339 -0.050847 -0.28814 -0.13543 l-4.4407 -4.0678 l0 3.9831 c0 0.13559 -0.067797 0.22017 -0.22034 0.22017 l-0.83051 0 c-0.15238 0 -0.22017 -0.08458 -0.22017 -0.22017 l0 -12.119 c0 -0.54237 -0.067797 -0.74576 -0.10169 -0.94915 c-0.016784 -0.15254 0.034064 -0.27119 0.15271 -0.27119 l0.77966 0 c0.27119 0 0.44068 0.16949 0.44068 0.4239 l0 8.6269 l3.8812 -3.7625 c0.084746 -0.10186 0.15254 -0.11881 0.25424 -0.11881 l0.98305 0 c0.20339 0 0.28814 0.22034 0.15254 0.37288 l-3.8644 3.661 z"></path></g></svg>